<svg width="67" height="67" viewBox="0 0 67 67" fill="none" xmlns="http://www.w3.org/2000/svg">
<path d="M52.5646 21.6644C52.4453 21.4544 52.2893 21.2464 51.9635 21.0876L47.3112 18.5032C47.2471 18.4678 47.1783 18.4409 47.1046 18.4225C47.0822 18.4173 47.059 18.4173 47.0338 18.414C46.9854 18.4055 46.937 18.3976 46.8893 18.3976H46.8797V18.3996C46.7421 18.4015 46.6064 18.4376 46.4872 18.5032L36.0191 24.3183L36.0102 24.3006L35.1651 24.771C34.1462 25.3359 32.8935 25.3359 31.8738 24.771L27.2979 22.2299C27.0443 22.0882 26.8876 21.8264 26.8876 21.5436C26.8876 21.2608 27.0443 20.9997 27.2979 20.858L31.8738 18.3182C32.8935 17.7526 34.1462 17.7526 35.1651 18.3182L36.2672 18.9303C36.5221 19.0708 36.8342 19.0708 37.0885 18.9303L41.3509 16.5638C41.6058 16.422 41.7619 16.1609 41.7619 15.8781C41.7619 15.5953 41.6058 15.3342 41.3509 15.1925L35.1651 11.7564C34.1462 11.1915 32.8935 11.1915 31.8738 11.7564L16.7214 20.173C15.6241 20.7825 15.6241 22.3047 16.7214 22.9142L31.8738 31.3308C32.8935 31.8957 34.1462 31.8957 35.1651 31.3308L46.8797 24.8242V39.6457L43.1155 41.7433L35.1651 46.172C34.9129 46.3111 34.6444 46.4174 34.3643 46.4902C33.5246 46.7041 32.629 46.5893 31.8738 46.172L20.9812 40.1227C20.472 39.8399 20.1585 39.3163 20.1585 38.7514V30.1118C20.1585 29.829 20.0011 29.5665 19.7475 29.4274L15.4871 27.0582C15.2322 26.9172 14.9187 26.9172 14.6638 27.0582C14.4089 27.1999 14.2528 27.4624 14.2528 27.7452V42.0326C14.2528 42.5975 14.5663 43.1185 15.0754 43.4032L31.8738 52.7344C32.3673 53.008 32.9275 53.1517 33.4966 53.1556H33.5082C33.5886 53.1556 33.6691 53.1471 33.7495 53.1425C33.8115 53.1379 33.8735 53.1379 33.9349 53.1314C34.0201 53.1202 34.1053 53.1005 34.1877 53.0854C34.245 53.0717 34.3022 53.0651 34.3574 53.052C34.4495 53.0297 34.5367 52.9969 34.6239 52.966C34.6744 52.9483 34.7228 52.9372 34.7684 52.9194C34.9041 52.8663 35.037 52.8046 35.163 52.7344L49.6571 44.684L51.9546 43.4301C52.4685 43.1493 52.7875 42.6238 52.7875 42.0543V22.4569C52.7875 22.1742 52.7071 21.9019 52.5646 21.6644Z" fill="#6EC177"/>
<path d="M35.1242 7.02327C34.6355 6.7523 34.0841 6.60795 33.5198 6.6027C32.9575 6.60795 32.4041 6.75295 31.9154 7.02327L11.6731 18.2664C10.6576 18.8306 10.0326 19.8725 10.0319 21.0004V43.4879C10.0319 44.6164 10.6576 45.6583 11.6731 46.2212L31.9154 57.4643C32.4109 57.7399 32.9711 57.8855 33.5429 57.8882C34.1141 57.8855 34.6764 57.7399 35.1726 57.4663L55.3263 46.2724C56.3404 45.7094 56.9668 44.6669 56.9668 43.539V37.0409C56.9647 36.7581 57.1228 36.4977 57.3757 36.3566L61.6675 33.9743C61.9197 33.8326 62.2345 33.8326 62.4867 33.9743C62.7416 34.1153 62.8977 34.3758 62.8977 34.6586V46.7599C62.8957 47.2769 62.7621 47.7847 62.5099 48.2394C62.4458 48.5373 62.1085 48.8883 61.6307 49.2485C61.6218 49.257 61.6075 49.2662 61.5966 49.2747C60.3848 50.1821 58.3783 51.1184 58.0225 51.3172L35.1726 64.0083C34.6607 64.2911 34.0773 64.4368 33.4877 64.4302H33.4625V64.4276C32.9186 64.4145 32.3857 64.2688 31.9154 64.0083L5.78304 49.4939C4.76752 48.9303 4.14185 47.8884 4.14185 46.7599V17.7303C4.14185 17.2238 4.20864 16.7074 4.43969 16.2705C4.47172 16.157 4.78796 15.5993 5.4409 15.1407C5.68694 14.9812 6.12178 14.7673 6.52935 14.5403L31.8425 0.48186C32.3516 0.199077 32.9323 0.054077 33.5198 0.060638C34.11 0.054077 34.688 0.199077 35.1978 0.48186L58.5555 13.4531C58.608 13.4846 58.6495 13.522 58.6952 13.5575L58.9917 13.7202C59.7857 14.1257 61.0295 14.7424 61.7043 15.2358L61.7595 15.2758C61.7684 15.2824 61.7779 15.2889 61.7868 15.2948C61.8099 15.3139 61.8263 15.3329 61.8488 15.3526C62.0969 15.552 62.3081 15.7863 62.471 16.0481C62.4758 16.0513 62.4779 16.0559 62.4826 16.0599L62.4799 16.0605C62.7532 16.4995 62.8977 17.0007 62.8977 17.5112V28.1408C62.8977 28.4236 62.7416 28.6841 62.4874 28.8251L58.1949 31.2094C57.9428 31.3485 57.6286 31.3485 57.3757 31.2094C57.1208 31.0684 56.9647 30.8079 56.9647 30.5251V20.9393C56.9647 19.8102 56.3384 18.767 55.3215 18.2034L35.1242 7.02327V7.02393V7.02327Z" fill="#3E4144"/>
</svg>
